<?xml version="1.0" encoding="iso-8859-1"?>
<svg fill="#000000" version="1.1" id="Layer_1" xmlns="http://www.w3.org/2000/svg" xmlns:xlink="http://www.w3.org/1999/xlink"
	 viewBox="0 0 512 512" xml:space="preserve">
<g>
	<g>
		<path d="M506.667,48c0-26.467-21.532-48-48-48s-48,21.533-48,48v106.667c0,8.822-7.177,16-16,16s-16-7.178-16-16V80
			c0-26.467-21.532-48-48-48s-48,21.533-48,48v80h-53.333V80c0-26.467-21.532-48-48-48c-26.468,0-48,21.533-48,48v74.667
			c0,8.822-7.178,16-16,16c-8.822,0-16-7.178-16-16V48c0-26.467-21.533-48-48-48c-26.467,0-48,21.533-48,48v106.667
			c0,26.797,10.46,51.194,27.505,69.333H5.333v16c0,41.171,33.495,74.667,74.667,74.667c16.065,0,30.959-5.098,43.153-13.763
			c1.779,13.753,8.338,26.027,17.954,35.097c-11.348,10.704-18.44,25.872-18.44,42.667V400c0,61.757,50.242,112,112,112h42.667
			c61.757,0,112-50.243,112-112v-21.333c0-16.795-7.091-31.962-18.439-42.667c9.615-9.07,16.175-21.344,17.954-35.097
			c12.193,8.664,27.089,13.763,43.152,13.763c41.171,0,74.667-33.495,74.667-74.667v-16h-27.506
			c17.045-18.14,27.506-42.537,27.506-69.333V48z M80,282.667c-17.872,0-33.213-11.044-39.554-26.667h79.108
			C113.213,271.622,97.872,282.667,80,282.667z M357.333,378.667V400c0,44.112-35.888,80-80,80h-42.667c-44.112,0-80-35.888-80-80
			v-21.333c0-14.704,11.963-26.667,26.667-26.667v-32c-14.704,0-26.667-11.963-26.667-26.667V256h202.667l0.001,37.333
			c0,14.704-11.964,26.667-26.668,26.667v32C345.371,352,357.333,363.963,357.333,378.667z M432,282.667
			c-17.872,0-33.213-11.044-39.554-26.667h79.108C465.213,271.622,449.872,282.667,432,282.667z M474.667,154.667
			c0,38.23-31.103,69.333-69.333,69.333H106.666c-38.23,0-69.332-31.103-69.332-69.333V48c0-8.822,7.178-16,16-16
			c8.822,0,16,7.178,16,16v106.667c0,26.468,21.533,48,48,48c26.467,0,48-21.532,48-48V80c0-8.822,7.178-16,16-16
			c8.822,0,16,7.178,16,16v112h117.333V80c0-8.822,7.177-16,16-16s16,7.178,16,16v74.667c0,26.468,21.532,48,48,48s48-21.532,48-48
			V48c0-8.822,7.177-16,16-16s16,7.178,16,16V154.667z"/>
	</g>
</g>
<g>
	<g>
		<path d="M218.667,277.333c-11.759,0-21.329,9.568-21.333,21.333c0,11.763,9.569,21.333,21.329,21.333h0.004
			C230.43,320,240,310.43,240,298.667C240,286.903,230.43,277.333,218.667,277.333z"/>
	</g>
</g>
<g>
	<g>
		<path d="M293.333,277.333c-11.759,0-21.329,9.568-21.333,21.333C272,310.43,281.569,320,293.329,320h0.004
			c11.763,0,21.333-9.57,21.333-21.333C314.667,286.903,305.097,277.333,293.333,277.333z"/>
	</g>
</g>
<g>
	<g>
		<rect x="208" y="410.667" width="32" height="42.667"/>
	</g>
</g>
<g>
	<g>
		<rect x="272" y="410.667" width="32" height="42.667"/>
	</g>
</g>
</svg>