<?xml version="1.0" encoding="iso-8859-1"?>
<svg version="1.1" id="Layer_1" xmlns="http://www.w3.org/2000/svg" xmlns:xlink="http://www.w3.org/1999/xlink"
	 viewBox="0 0 512 512" xml:space="preserve">
<path style="fill:#BFA993;" d="M426.667,238.933V204.8H96.711v34.133H5.689c0,34.56,28.017,62.578,62.578,62.578
	s62.578-28.018,62.578-62.578v56.889c0,25.135,20.375,45.511,45.511,45.511c-25.135,0-45.511,20.375-45.511,45.511V409.6
	c0,56.554,45.847,102.4,102.4,102.4h45.511c56.553,0,102.4-45.846,102.4-102.4v-22.756c0-25.136-20.375-45.511-45.511-45.511h0.001
	c25.135,0,45.511-20.375,45.511-45.511l-0.001-56.889c0,34.56,28.017,62.578,62.578,62.578s62.578-28.018,62.578-62.578H426.667z"/>
<g>
	<path style="fill:#B29A7E;" d="M68.267,301.511c34.561,0,62.578-28.018,62.578-62.578H5.689
		C5.689,273.493,33.706,301.511,68.267,301.511z"/>
	<path style="fill:#B29A7E;" d="M256,512h22.756c56.553,0,102.4-45.846,102.4-102.4v-22.756c0-25.136-20.375-45.511-45.511-45.511
		h0.001c25.135,0,45.511-20.375,45.511-45.511l-0.001-56.889H256V512z"/>
	<path style="fill:#B29A7E;" d="M381.156,238.933c0,34.56,28.017,62.578,62.578,62.578s62.578-28.018,62.578-62.578H381.156z"/>
</g>
<path style="fill:#EBE4DD;" d="M506.311,147.911c0,50.27-40.752,91.022-91.022,91.022H96.71c-50.27,0-91.021-40.753-91.021-91.022
	V34.133C5.689,15.283,20.972,0,39.822,0s34.133,15.283,34.133,34.133v113.778c0,18.851,15.283,34.133,34.133,34.133
	s34.133-15.283,34.133-34.133V68.267c0-18.851,15.283-34.133,34.133-34.133s34.133,15.283,34.133,34.133v102.4h91.022v-102.4
	c0-18.851,15.283-34.133,34.133-34.133c18.851,0,34.133,15.283,34.133,34.133v79.644c0,18.851,15.283,34.133,34.133,34.133
	c18.851,0,34.133-15.283,34.133-34.133V34.133C438.044,15.283,453.327,0,472.178,0c18.851,0,34.133,15.283,34.133,34.133V147.911z"
	/>
<path style="fill:#D8CCBC;" d="M472.178,0c-18.851,0-34.133,15.283-34.133,34.133v113.778c0,18.851-15.283,34.133-34.133,34.133
	c-18.851,0-34.133-15.283-34.133-34.133V68.267c0-18.851-15.283-34.133-34.133-34.133c-18.851,0-34.133,15.283-34.133,34.133v102.4
	H256v68.267h159.289c50.27,0,91.022-40.752,91.022-91.022V34.133C506.311,15.283,491.028,0,472.178,0z"/>
<path style="fill:#58575D;" d="M216.178,324.267h-0.005c-12.544,0-22.751-10.208-22.751-22.756
	c0.005-12.55,10.213-22.756,22.756-22.756c12.547,0,22.756,10.208,22.756,22.756C238.933,314.059,228.725,324.267,216.178,324.267z"
	/>
<path style="fill:#454449;" d="M295.822,324.267h-0.005c-12.544,0-22.751-10.208-22.751-22.756
	c0.005-12.55,10.213-22.756,22.756-22.756c12.547,0,22.756,10.208,22.756,22.756C318.578,314.059,308.37,324.267,295.822,324.267z"
	/>
<rect x="204.8" y="420.978" style="fill:#58575D;" width="34.133" height="45.511"/>
<rect x="273.067" y="420.978" style="fill:#454449;" width="34.133" height="45.511"/>
</svg>
